# xmcd CD database file
# Copyright (C) 1995-1998 Ti Kan
#
# Track frame offsets:
#	150
#	10417
#	23715
#	35447
#	44945
#	57692
#	72565
#	84987
#	98247
#	110185
#	123335
#	137100
#	148837
#	161672
#	174997
#	189252
#	200850
#	214135
#	223490
#	237350
#
# Disc length: 3329 seconds
#
# Revision: 1
# Processed by: cddbd v1.4b41PL3 Copyright (c) Steve Scherf et al.
# Submitted via: CDex 1.40Beta0
#
DISCID=420cff14
DTITLE=Little Walter - Little Walter - Gitanes Blues Collection
DYEAR=1900
DGENRE=Blues
TTITLE0=Hate to See You Go
TTITLE1=Key to the Highway
TTITLE2=The Toddle
TTITLE3=Up the Line
TTITLE4=Thunderbird
TTITLE5=Mercy Babe
TTITLE6=Juke
TTITLE7=Blues With A Feeling
TTITLE8=Mellow Down Easy
TTITLE9=Roller Coaster
TTITLE10=Crazy For My Baby
TTITLE11=As Long As I Have You
TTITLE12=Everything's Gonna Be Alright
TTITLE13=Blue and Lonesome
TTITLE14=Quarter to Twelve
TTITLE15=Too Late
TTITLE16=Last Night
TTITLE17=Ive Had My Fun
TTITLE18=Confessin the Blues
TTITLE19=Tell Me Mama
EXTD=ID3G:   0
EXTT0=
EXTT1=
EXTT2=
EXTT3=
EXTT4=
EXTT5=
EXTT6=
EXTT7=
EXTT8=
EXTT9=
EXTT10=
EXTT11=
EXTT12=
EXTT13=
EXTT14=
EXTT15=
EXTT16=
EXTT17=
EXTT18=
EXTT19=
PLAYORDER=
